<svg width="578.8537841796875px" height="129.1824951171875px" xmlns="http://www.w3.org/2000/svg" viewBox="-39.42689208984376 10.40875244140625 578.8537841796875 129.1824951171875" style="background: none;" preserveAspectRatio="xMidYMid"><defs><filter id="editing-hover" x="-100%" y="-100%" width="300%" height="300%"><feFlood flood-color="#ffffff" result="flood"></feFlood><feComposite operator="in" in2="SourceAlpha" in="flood" result="shadow"></feComposite><feOffset dx="0.1" dy="0.1" in="SourceGraphic" result="offset-1"></feOffset><feOffset dx="-0.1" dy="-0.1" in="shadow" result="offset-2"></feOffset><feMerge><feMergeNode in="offset-2"></feMergeNode><feMergeNode in="offset-1"></feMergeNode></feMerge></filter></defs><g filter="url(#editing-hover)"><g transform="translate(45.82218813896179, 99.43937492370605)"><path d="M1.78 0.06L2.59-5.38L2.59-5.38Q4.97-4.19 7.69-4.19L7.69-4.19L7.69-4.19Q10.41-4.19 11.97-4.91L11.97-4.91L11.97-4.91Q13.53-5.63 14.38-7L14.38-7L14.38-7Q15.84-9.28 15.84-14.63L15.84-14.63L15.84-48.56L21.25-48.56L21.25-14.97L21.25-14.97Q21.25-9.84 20.61-7.33L20.61-7.33L20.61-7.33Q19.97-4.81 18.70-3.25L18.70-3.25L18.70-3.25Q17.44-1.69 15.75-0.81L15.75-0.81L15.75-0.81Q12.84 0.63 7.88 0.63L7.88 0.63L7.88 0.63Q4.31 0.63 1.78 0.06L1.78 0.06ZM32.78-21.75L32.78-48.56L38.19-48.56L38.19-21.75L38.19-21.75Q38.19-16.63 38.63-14.27L38.63-14.27L38.63-14.27Q39.06-11.91 39.83-10.17L39.83-10.17L39.83-10.17Q40.59-8.44 41.97-7.13L41.97-7.13L41.97-7.13Q44.97-4.34 50.66-4.34L50.66-4.34L50.66-4.34Q58.88-4.34 61.47-10.19L61.47-10.19L61.47-10.19Q62.88-13.41 63-16.63L63-16.63L63-16.63Q63.13-19.84 63.13-21.75L63.13-21.75L63.13-48.56L68.56-48.56L68.56-21.75L68.56-21.75Q68.56-15.03 67.88-12L67.88-12L67.88-12Q67.19-8.97 66.06-6.77L66.06-6.77L66.06-6.77Q64.94-4.56 62.94-2.94L62.94-2.94L62.94-2.94Q58.63 0.63 50.66 0.63L50.66 0.63L50.66 0.63Q38.97 0.63 35.22-6.75L35.22-6.75L35.22-6.75Q33.19-10.84 32.91-16.56L32.91-16.56L32.91-16.56Q32.78-19.22 32.78-21.75L32.78-21.75ZM94.56-49L94.56-49L95.56-49.03L95.56-49.03Q100.25-49.03 106.28-47.19L106.28-47.19L105.28-42.50L105.28-42.50Q91.41-46.94 86.66-40.25L86.66-40.25L86.66-40.25Q85.25-38.28 85.25-35.98L85.25-35.98L85.25-35.98Q85.25-33.69 86.02-32.36L86.02-32.36L86.02-32.36Q86.78-31.03 88.09-30L88.09-30L88.09-30Q90.16-28.38 93.78-27.03L93.78-27.03L93.78-27.03Q97.41-25.69 99.86-24.42L99.86-24.42L99.86-24.42Q102.31-23.16 104.25-21.47L104.25-21.47L104.25-21.47Q108.59-17.69 108.59-12.72L108.59-12.72L108.59-12.72Q108.59-8.66 106.86-5.97L106.86-5.97L106.86-5.97Q105.13-3.28 102.88-1.88L102.88-1.88L102.88-1.88Q98.75 0.63 92.28 0.63L92.28 0.63L92.28 0.63Q85.69 0.63 78.28-1.94L78.28-1.94L79.25-6.72L79.25-6.72Q85.25-4.47 92.41-4.19L92.41-4.19L92.41-4.19Q98.47-3.97 101.44-7.75L101.44-7.75L101.44-7.75Q102.97-9.75 102.97-11.88L102.97-11.88L102.97-11.88Q102.97-14 102.14-15.39L102.14-15.39L102.14-15.39Q101.31-16.78 99.91-17.94L99.91-17.94L99.91-17.94Q97.34-20.09 93.78-21.34L93.78-21.34L93.78-21.34Q90.22-22.59 87.91-23.73L87.91-23.73L87.91-23.73Q85.59-24.88 83.75-26.50L83.75-26.50L83.75-26.50Q79.72-30.09 79.72-35.69L79.72-35.69L79.72-35.69Q79.72-44.75 88.44-47.94L88.44-47.94L88.44-47.94Q91.38-49 94.56-49ZM138.78 0L133.34 0L133.34-43.56L117.34-43.56L117.34-48.56L154.53-48.56L154.53-43.56L138.78-43.56L138.78 0ZM203.25 0L188.44 0L188.44-48.56L203.50-48.56L203.50-48.56Q221.41-48.56 225.13-34.34L225.13-34.34L225.13-34.34Q226.28-29.84 226.28-24.25L226.28-24.25L226.28-22.97L226.28-22.97Q226.28-12 220.31-6.03L220.31-6.03L220.31-6.03Q214.28 0 203.25 0L203.25 0ZM193.84-43.63L193.84-4.91L203.25-4.91L203.25-4.91Q211.72-4.91 216.28-9.88L216.28-9.88L216.28-9.88Q220.69-14.66 220.69-22.97L220.69-22.97L220.69-24.25L220.69-24.25Q220.50-34.22 216.56-38.81L216.56-38.81L216.56-38.81Q212.44-43.63 203.38-43.63L203.38-43.63L193.84-43.63ZM236.59 0L236.59-48.56L264.31-48.56L264.03-43.56L242-43.56L242-27.31L261.72-27.31L261.72-22.38L242-22.38L242-4.97L264.63-4.97L264.91 0L236.59 0ZM284.75 0L267.28-48.56L273.50-48.56L288.41-4.78L303.28-48.56L309.50-48.56L292 0L284.75 0ZM316.75 0L316.75-6.34L324-6.34L324 0L316.75 0ZM337.53 0L337.53-48.56L350.97-48.56L350.97-48.56Q365.97-48.75 369.16-39.06L369.16-39.06L369.16-39.06Q370.22-35.91 370.14-32.06L370.14-32.06L370.14-32.06Q370.06-28.22 368.83-25.14L368.83-25.14L368.83-25.14Q367.59-22.06 365.22-19.81L365.22-19.81L365.22-19.81Q360.09-15.06 351.03-15.19L351.03-15.19L342.97-15.19L342.97 0L337.53 0ZM342.97-19.88L351.03-19.88L351.03-19.88Q360.56-19.78 363.53-26.88L363.53-26.88L363.53-26.88Q364.47-29.13 364.52-31.98L364.52-31.98L364.52-31.98Q364.56-34.84 363.86-37.03L363.86-37.03L363.86-37.03Q363.16-39.22 361.53-40.72L361.53-40.72L361.53-40.72Q358.28-43.75 350.97-43.75L350.97-43.75L342.97-43.75L342.97-19.88ZM406.34 0L378.88 0L378.88-48.56L384.28-48.56L384.28-5.06L406.56-5.06L406.34 0Z" fill="#ffffff"></path></g></g><style>text {
  font-size: 64px;
  font-family: Arial Black;
  dominant-baseline: central;
  text-anchor: middle;
}</style></svg>